<svg width="13" height="16" viewBox="0 0 13 16" fill="none" xmlns="http://www.w3.org/2000/svg">
<path d="M7.125 2.0354C8.28532 2.0354 9.39812 2.56808 10.2186 3.51627C11.0391 4.46445 11.5 5.75047 11.5 7.09141C11.5 7.28297 11.5658 7.46669 11.6831 7.60214C11.8003 7.7376 11.9592 7.8137 12.125 7.8137C12.2908 7.8137 12.4497 7.7376 12.5669 7.60214C12.6842 7.46669 12.75 7.28297 12.75 7.09141C12.75 5.36735 12.1574 3.7139 11.1025 2.4948C10.0476 1.2757 8.61684 0.59082 7.125 0.59082C6.95924 0.59082 6.80027 0.666918 6.68306 0.802373C6.56585 0.937829 6.5 1.12155 6.5 1.31311C6.5 1.50467 6.56585 1.68839 6.68306 1.82384C6.80027 1.9593 6.95924 2.0354 7.125 2.0354ZM12.5938 10.6378C12.5594 10.5219 12.5 10.418 12.4213 10.3358C12.3426 10.2537 12.2471 10.1961 12.1438 10.1684L8.39375 9.17882C8.29196 9.15215 8.18601 9.15536 8.08557 9.18816C7.98513 9.22097 7.8934 9.28232 7.81875 9.36662C7.73125 9.46051 7.725 9.46774 7.31875 10.3634C5.97075 9.64553 4.89062 8.39215 4.275 6.83139C5.06875 6.36912 5.075 6.36912 5.15625 6.26078C5.22919 6.17451 5.28228 6.0685 5.31067 5.95242C5.33905 5.83635 5.34183 5.71391 5.31875 5.59627L4.4625 1.31311C4.43853 1.19371 4.38866 1.08333 4.31759 0.992348C4.24652 0.90137 4.15658 0.832788 4.05625 0.793061C3.91029 0.732814 3.75957 0.689268 3.60625 0.663049C3.44828 0.62072 3.28708 0.596526 3.125 0.59082C2.3625 0.59082 1.63124 0.940871 1.09207 1.56396C0.552901 2.18706 0.25 3.03216 0.25 3.91334C0.253307 6.86223 1.26843 9.68925 3.07275 11.7744C4.87707 13.8596 7.32331 15.0328 9.875 15.0366C10.2526 15.0366 10.6264 14.9506 10.9752 14.7837C11.324 14.6167 11.641 14.372 11.9079 14.0634C12.1749 13.7549 12.3867 13.3886 12.5312 12.9855C12.6756 12.5824 12.75 12.1504 12.75 11.7141C12.7502 11.5302 12.7377 11.3466 12.7125 11.1651C12.6862 10.9857 12.6465 10.8093 12.5938 10.6378Z" fill="#868686"/>
</svg>
