<svg width="18" height="13" viewBox="0 0 18 13" fill="none" xmlns="http://www.w3.org/2000/svg">
<path d="M16.2 0H1.8C0.81 0 0.00899999 0.73125 0.00899999 1.625L0 11.375C0 12.2688 0.81 13 1.8 13H16.2C17.19 13 18 12.2688 18 11.375V1.625C18 0.73125 17.19 0 16.2 0ZM15.84 3.45312L9.477 7.04438C9.189 7.20688 8.811 7.20688 8.523 7.04438L2.16 3.45312C2.06975 3.40739 1.99073 3.3456 1.9277 3.27149C1.86467 3.19739 1.81896 3.11251 1.79332 3.02199C1.76768 2.93147 1.76265 2.8372 1.77854 2.74487C1.79443 2.65255 1.8309 2.5641 1.88575 2.48487C1.9406 2.40564 2.01269 2.33728 2.09765 2.28393C2.18262 2.23058 2.27868 2.19335 2.38005 2.17449C2.48141 2.15563 2.58595 2.15554 2.68736 2.17421C2.78876 2.19288 2.88492 2.22993 2.97 2.28312L9 5.6875L15.03 2.28312C15.1151 2.22993 15.2112 2.19288 15.3126 2.17421C15.414 2.15554 15.5186 2.15563 15.62 2.17449C15.7213 2.19335 15.8174 2.23058 15.9023 2.28393C15.9873 2.33728 16.0594 2.40564 16.1142 2.48487C16.1691 2.5641 16.2056 2.65255 16.2215 2.74487C16.2373 2.8372 16.2323 2.93147 16.2067 3.02199C16.181 3.11251 16.1353 3.19739 16.0723 3.27149C16.0093 3.3456 15.9302 3.40739 15.84 3.45312V3.45312Z" fill="#888888"/>
</svg>
