<svg width="776" height="864" viewBox="0 0 776 864" fill="none" xmlns="http://www.w3.org/2000/svg">
<path d="M668.224 543.888H562.216C551.438 543.888 542.682 534.902 542.682 523.843C542.682 512.784 551.438 503.798 562.216 503.798H621.409C634.207 503.798 644.564 493.171 644.564 480.038C644.564 466.906 634.207 456.278 621.409 456.278H568.784C554.385 456.278 542.682 444.269 542.682 429.494C542.682 414.72 554.385 402.71 568.784 402.71H627.303C640.101 402.71 650.542 391.997 650.542 378.864C650.542 365.731 640.101 355.018 627.303 355.018H542.766H522.558C509.759 355.018 499.319 344.304 499.319 331.171C499.319 318.038 509.759 307.325 522.558 307.325H545.46C558.259 307.325 568.699 296.611 568.699 283.478C568.699 270.346 558.259 259.632 545.46 259.632H532.409H530.22H391.879H387.164H242.677H209.586C196.788 259.632 186.347 270.346 186.347 283.478C186.347 296.611 196.788 307.325 209.586 307.325H219.438C232.236 307.325 242.677 318.038 242.677 331.171C242.677 344.304 232.236 355.018 219.438 355.018H130.775C120.924 355.018 112.925 363.226 112.925 373.334C112.925 383.443 120.924 391.651 130.775 391.651H224.153C234.425 391.651 242.761 400.205 242.761 410.746C242.761 421.286 234.425 429.84 224.153 429.84H75.1191C62.3207 429.84 51.8799 440.554 51.8799 453.686C51.8799 466.819 62.3207 477.533 75.1191 477.533H219.438C232.236 477.533 242.677 488.246 242.677 501.379C242.677 514.512 232.236 525.226 219.438 525.226H132.291C111.746 525.226 95.0745 542.333 95.0745 563.414C95.0745 584.496 111.746 601.603 132.291 601.603H242.677H291.681H319.215H542.766H668.224C683.717 601.603 696.262 588.73 696.262 572.832C696.262 556.762 683.717 543.888 668.224 543.888Z" fill="#FF7E20"/>
<path d="M471.54 694.331H486.696V460.36H471.54V694.331Z" fill="#2F262D"/>
<path d="M413.856 507.514C411.414 501.898 413.856 495.245 419.413 492.653C420.844 492.048 422.36 491.702 423.876 491.702C428.17 491.702 432.127 494.294 433.895 498.355L487.783 622.944L467.744 632.102L413.856 507.514Z" fill="#FC9F6F"/>
<path d="M323.766 694.331H338.922V460.36H323.766V694.331Z" fill="#2F262D"/>
<path d="M393.9 475.631C341.781 475.631 299.596 434.85 299.596 384.652C299.596 371.692 302.459 359.337 307.511 348.105C274.336 362.188 251.181 394.242 251.181 431.394C251.181 481.679 293.366 522.374 345.485 522.374C384.133 522.374 417.308 499.996 431.875 467.942C420.171 472.866 407.372 475.631 393.9 475.631Z" fill="#F2F2F2"/>
<path d="M341.696 500.255C370.202 500.255 393.311 478.477 393.311 451.612C393.311 424.748 370.202 402.969 341.696 402.969C313.19 402.969 290.082 424.748 290.082 451.612C290.082 478.477 313.19 500.255 341.696 500.255Z" fill="#3B323A"/>
<path d="M248.74 460.339H133.301C128.923 460.339 125.302 456.624 125.302 452.131V444.355C125.302 439.862 128.923 436.147 133.301 436.147H248.74C253.118 436.147 256.739 439.862 256.739 444.355V452.131C256.739 456.624 253.118 460.339 248.74 460.339Z" fill="#D1D1D1"/>
<path d="M386.407 414.547C370.24 414.547 357.105 401.069 357.105 384.48V354.413C357.105 342.922 348.096 333.677 336.897 333.677V384.48C336.897 412.56 359.042 435.283 386.407 435.283H427.412V414.547H386.407Z" fill="#FFC5A7"/>
<path d="M393.058 255.83C390.027 295.142 356.347 338.688 324.856 333.158C294.713 327.888 274 279.072 284.188 244.858C290.503 223.776 307.848 210.557 321.825 199.93C336.308 188.87 346.075 181.44 357.189 183.254C379.25 186.71 395.5 224.554 393.058 255.83Z" fill="#452523"/>
<path d="M350.537 367.718C349.948 367.027 345.233 361.411 344.391 360.634C342.201 351.389 337.739 341.194 338.665 329.27C332.35 324.518 321.909 318.47 310.037 319.334C306.501 319.594 302.796 320.458 300.943 320.89C290.671 323.309 284.188 327.197 282.083 328.493C279.22 330.307 277.788 331.171 276.104 332.899C271.558 337.738 270.463 343.613 269.874 347.069C264.822 377.136 268.779 405.994 269.284 408.499C270.211 413.078 271.473 417.139 271.473 417.139C273.578 423.965 276.105 428.198 276.778 430.099C280.146 439.43 287.808 459.043 295.891 473.99C301.785 474.941 315.173 480.989 324.014 477.878C337.486 473.126 365.272 462.499 375.208 460.339C362.83 446.083 351.463 430.186 348.516 410.832C347.759 405.821 347.085 400.896 346.58 396.058C347.759 395.453 354.916 391.738 356.347 384.307C357.863 376.272 351.716 369.101 350.537 367.718Z" fill="#7939FF"/>
<path d="M320.131 349.481C327.477 347.379 331.497 338.558 329.112 329.78C326.726 321.001 318.837 315.589 311.491 317.691C304.146 319.792 300.125 328.613 302.511 337.392C304.896 346.17 312.785 351.583 320.131 349.481Z" fill="#E9A689"/>
<path d="M313.658 313.978C318.289 325.21 325.951 329.098 330.835 332.035C340.349 337.738 358.199 337.219 358.199 337.219C358.789 333.245 359.378 329.789 362.409 323.222C366.788 313.459 370.829 311.126 376.471 302.314C384.891 289.008 389.101 272.938 386.406 271.382C384.47 270.173 379.165 276.394 375.713 280.022C365.862 290.39 343.801 305.77 313.658 313.978Z" fill="#392220"/>
<path d="M313.321 338.688H309.785C302.038 338.688 295.807 332.294 295.807 324.346V269.827H323.762V327.888C323.762 333.85 319.047 338.688 313.321 338.688Z" fill="#E9A689"/>
<path d="M155.937 694.331H171.093V460.36H155.937V694.331Z" fill="#2F262D"/>
<path d="M249.156 694.331H264.311V460.36H249.156V694.331Z" fill="#494149"/>
<path d="M562.763 694.331H577.919V460.36H562.763V694.331Z" fill="#494149"/>
<path opacity="0.71" d="M295.807 275.616C297.66 292.118 308.774 305.77 323.762 310.954V266.544H295.807V275.616Z" fill="#D36B46"/>
<path d="M336.897 308.793C316.352 308.793 299.765 291.772 299.765 270.69V224.207C299.765 222.22 301.28 220.665 303.217 220.665H356.011C365.946 220.665 374.029 228.959 374.029 239.154V270.69C374.029 291.772 357.442 308.793 336.897 308.793Z" fill="#EBAE8F"/>
<path d="M374.029 265.248C373.608 266.285 372.598 266.976 371.503 266.976H355.168C353.653 266.976 352.39 265.68 352.39 264.125V254.707C352.39 253.152 353.653 251.856 355.168 251.856H371.503C372.598 251.856 373.608 252.547 374.029 253.584V249.955C373.271 249.523 372.429 249.264 371.503 249.264H355.168C352.221 249.264 349.864 251.683 349.864 254.707V264.125C349.864 267.149 352.221 269.568 355.168 269.568H371.503C372.429 269.568 373.271 269.309 374.029 268.877V265.248Z" fill="#DD9883"/>
<path d="M341.191 268.185H324.857C322.583 268.185 320.815 266.284 320.815 264.038V254.62C320.815 252.287 322.667 250.473 324.857 250.473H341.191C343.465 250.473 345.233 252.374 345.233 254.62V264.038C345.233 266.37 343.381 268.185 341.191 268.185Z" stroke="#DD9883" stroke-width="3" stroke-miterlimit="10" stroke-linecap="round" stroke-linejoin="round"/>
<path opacity="0.6" d="M322.836 277.948V231.465C322.836 229.478 324.351 227.922 326.288 227.922L356.768 216.95C353.484 212.543 361.82 220.751 356.01 220.751H303.217C301.28 220.751 299.765 222.306 299.765 224.294V270.777C299.765 291.858 316.352 308.879 336.897 308.879C337.318 308.879 337.739 308.879 338.244 308.879C328.898 301.881 322.836 290.649 322.836 277.948Z" fill="#E79C76"/>
<path d="M371.503 266.457H355.169C352.895 266.457 351.127 264.556 351.127 262.31V252.892C351.127 250.559 352.979 248.745 355.169 248.745H371.503C373.777 248.745 375.545 250.646 375.545 252.892V262.31C375.545 264.642 373.693 266.457 371.503 266.457Z" stroke="#F6CDF7" stroke-width="3" stroke-miterlimit="10" stroke-linecap="round" stroke-linejoin="round"/>
<path d="M346.58 289.613C341.865 289.613 338.076 285.725 338.076 280.973V276.912H354.916V280.973C354.916 285.725 351.211 289.613 346.58 289.613Z" fill="#FCFAFA"/>
<path d="M331.34 256.521H338.918" stroke="#161515" stroke-width="3" stroke-miterlimit="10" stroke-linecap="round" stroke-linejoin="round"/>
<path d="M359.968 256.521H367.546" stroke="#161515" stroke-width="3" stroke-miterlimit="10" stroke-linecap="round" stroke-linejoin="round"/>
<path d="M341.191 266.457H324.857C322.583 266.457 320.815 264.556 320.815 262.31V252.892C320.815 250.559 322.667 248.745 324.857 248.745H341.191C343.465 248.745 345.233 250.646 345.233 252.892V262.31C345.233 264.642 343.381 266.457 341.191 266.457Z" stroke="#F6CDF7" stroke-width="3" stroke-miterlimit="10" stroke-linecap="round" stroke-linejoin="round"/>
<path d="M352.474 185.674C342.286 172.195 324.941 172.454 321.741 172.109C318.878 171.504 303.133 172.282 291.598 175.392C264.99 182.65 246.466 207.36 246.466 235.699V271.987C246.466 296.352 263.98 325.901 286.461 333.59C298.923 337.91 312.732 341.194 316.016 340.675C299.344 308.966 301.617 290.218 306.333 279.245C317.615 252.461 350.706 253.411 358.873 223.603C359.042 222.739 364.178 201.226 352.474 185.674Z" fill="#693935"/>
<path d="M456.377 435.024C457.219 432.778 457.64 430.358 457.64 427.853C457.64 416.362 448.631 407.117 437.432 407.117C426.233 407.117 417.224 416.362 417.224 427.853C417.224 430.358 417.645 432.778 418.487 435.024H456.377Z" fill="#FFC3A9"/>
<path d="M391.543 436.147C389.859 428.198 380.513 422.15 369.146 422.15C357.863 422.15 348.433 428.198 346.749 436.147H391.543Z" fill="#F4EFF0"/>
<path d="M280.651 375.667C287.44 375.667 292.945 366.809 292.945 355.882C292.945 344.955 287.44 336.096 280.651 336.096C273.862 336.096 268.358 344.955 268.358 355.882C268.358 366.809 273.862 375.667 280.651 375.667Z" fill="#FFC5A7"/>
<path d="M317.868 415.238C301.701 415.238 288.566 401.76 288.566 385.171V348.451C288.566 342.749 284.019 338.083 278.462 338.083C272.905 338.083 268.358 342.749 268.358 348.451V385.171C268.358 413.251 290.503 435.974 317.868 435.974H358.873V415.238H338.328H317.868Z" fill="#FFC5A7"/>
<path d="M488.12 436.147H393.816C392.637 436.147 391.627 435.11 391.627 433.901C391.627 432.691 392.637 431.654 393.816 431.654H488.204C489.383 431.654 490.394 432.691 490.394 433.901C490.394 435.11 489.383 436.147 488.12 436.147Z" fill="white"/>
<path d="M488.12 433.9H393.816C392.974 433.9 392.301 433.468 391.88 432.777C391.711 433.122 391.543 433.468 391.543 433.9C391.543 435.11 392.553 436.146 393.732 436.146H488.12C489.299 436.146 490.31 435.11 490.31 433.9C490.31 433.468 490.225 433.122 489.973 432.777C489.636 433.382 488.962 433.9 488.12 433.9Z" fill="#F4EFF0"/>
<path d="M412.088 436.147H393.816C392.637 436.147 391.627 435.11 391.627 433.901C391.627 432.691 392.637 431.654 393.816 431.654H412.088C413.266 431.654 414.277 432.691 414.277 433.901C414.277 435.11 413.351 436.147 412.088 436.147Z" fill="#F4EFF0"/>
<path d="M481.468 431.654H474.564V430.013C474.564 429.149 475.238 428.371 476.164 428.371H479.869C480.711 428.371 481.468 429.062 481.468 430.013V431.654Z" fill="#F4EFF0"/>
<path d="M473.048 431.654H466.144V430.013C466.144 429.149 466.818 428.371 467.744 428.371H471.449C472.291 428.371 473.048 429.062 473.048 430.013V431.654Z" fill="#F4EFF0"/>
<path d="M464.629 431.654H457.724V430.013C457.724 429.149 458.398 428.371 459.324 428.371H463.029C463.871 428.371 464.629 429.062 464.629 430.013V431.654Z" fill="#F4EFF0"/>
<path d="M456.208 431.654H449.304V430.013C449.304 429.149 449.978 428.371 450.904 428.371H454.609C455.451 428.371 456.208 429.062 456.208 430.013V431.654Z" fill="#F4EFF0"/>
<path d="M447.788 431.654H440.884V430.013C440.884 429.149 441.558 428.371 442.484 428.371H446.189C447.031 428.371 447.788 429.062 447.788 430.013V431.654Z" fill="#F4EFF0"/>
<path d="M439.368 431.654H432.464V430.013C432.464 429.149 433.138 428.371 434.064 428.371H437.769C438.611 428.371 439.368 429.062 439.368 430.013V431.654Z" fill="#F4EFF0"/>
<path d="M430.948 431.654H424.044V430.013C424.044 429.149 424.718 428.371 425.644 428.371H429.349C430.191 428.371 430.948 429.062 430.948 430.013V431.654Z" fill="#F4EFF0"/>
<path d="M422.528 431.654H415.624V430.013C415.624 429.149 416.298 428.371 417.224 428.371H420.929C421.771 428.371 422.528 429.062 422.528 430.013V431.654Z" fill="#F4EFF0"/>
<path d="M414.109 431.654H407.204V430.013C407.204 429.149 407.878 428.371 408.804 428.371H412.509C413.351 428.371 414.109 429.062 414.109 430.013V431.654Z" fill="#F4EFF0"/>
<path d="M405.688 431.654H398.784V430.013C398.784 429.149 399.458 428.371 400.384 428.371H404.089C404.931 428.371 405.688 429.062 405.688 430.013V431.654Z" fill="#F4EFF0"/>
<path d="M393.816 436.147H412.088C413.267 436.147 414.277 435.11 414.277 433.901H391.543C391.543 435.11 392.553 436.147 393.816 436.147Z" fill="#E2E2E2"/>
<path d="M401.984 506.304H335.381L334.876 470.016H417.392C422.949 470.016 427.412 474.595 427.412 480.298C427.328 494.726 415.961 506.304 401.984 506.304Z" fill="#352934"/>
<path d="M348.432 637.891L389.269 496.195C390.617 491.443 394.911 488.16 399.794 488.16C400.805 488.16 401.899 488.333 402.91 488.592C408.72 490.32 412.003 496.627 410.319 502.589L369.482 644.285L348.432 637.891Z" fill="#EF9067"/>
<path d="M382.365 626.314L348.432 616.032L391.206 467.683C393.985 458.093 403.836 452.563 413.182 455.414C422.528 458.266 427.917 468.374 425.139 477.965L382.365 626.314Z" fill="#352934"/>
<path d="M550.934 394.157H409.478C406.699 394.157 404.426 391.824 404.426 388.973L421.939 285.293C421.939 282.442 424.213 280.109 426.991 280.109H568.447C571.226 280.109 573.499 282.442 573.499 285.293L555.986 388.973C555.986 391.824 553.796 394.157 550.934 394.157Z" fill="#CECECE"/>
<path d="M559.354 394.157H417.897C415.119 394.157 412.845 391.824 412.845 388.973L430.359 285.293C430.359 282.442 432.632 280.109 435.411 280.109H576.867C579.646 280.109 581.919 282.442 581.919 285.293L564.406 388.973C564.406 391.824 562.216 394.157 559.354 394.157Z" fill="#F4EFF0"/>
<path d="M516.159 430.531L504.539 370.138H483.826C481.3 370.138 479.363 372.557 479.868 375.062L490.141 428.371C490.562 430.358 489.046 432.173 487.11 432.173H474.48C472.206 432.173 470.438 434.074 470.438 436.32H491.656H511.359C514.475 436.406 516.748 433.555 516.159 430.531Z" fill="#CECECE"/>
<path d="M517.254 436.406H495.783L483.321 371.606C483.153 370.829 483.742 370.224 484.5 370.224H508.665L520.622 432.346C520.958 434.419 519.359 436.406 517.254 436.406Z" fill="#F4EFF0"/>
<path d="M491.741 436.406H495.782L494.688 430.531H490.562L491.741 436.406Z" fill="#F4EFF0"/>
<path d="M491.741 436.406C493.846 436.406 495.446 434.419 495.025 432.259L494.688 430.531H490.141L491.741 436.406Z" fill="#CECECE"/>
<path d="M507.124 346.881C504.458 343.3 512.67 344.395 507.176 335.058C508.266 333.949 509.535 333.258 510.863 332.868C510.265 331.795 509.546 330.725 508.586 329.78C503.482 324.762 495.22 324.998 490.133 330.173C485.045 335.349 485.009 343.673 490.052 348.633C495.155 353.651 503.417 353.415 508.505 348.239C508.566 348.178 508.626 348.116 508.687 348.054C508.085 347.705 507.604 347.354 507.124 346.881Z" fill="#B8B8B8"/>
<path d="M412.34 486.518L342.959 505.266C324.099 510.364 304.985 496.626 295.807 473.903L403.331 451.353C412.761 448.847 422.444 454.636 424.886 464.313C427.412 474.076 421.771 484.012 412.34 486.518Z" fill="#3B323A"/>
<path d="M482.142 594.518L449.809 609.292L393.143 478.482C389.185 469.324 393.227 458.61 402.152 454.55C411.077 450.489 421.518 454.636 425.475 463.794L482.142 594.518Z" fill="#3B323A"/>
<path d="M241.751 460.339H602.295C606.674 460.339 610.294 456.624 610.294 452.131V444.355C610.294 439.862 606.674 436.147 602.295 436.147H241.751C237.373 436.147 233.752 439.862 233.752 444.355V452.131C233.752 456.624 237.288 460.339 241.751 460.339Z" fill="#F2F2F2"/>
<path d="M534.851 636.595L463.197 649.987C460.418 650.506 457.808 648.691 457.219 646.013L456.714 643.68C455.282 636.941 459.492 630.115 466.397 628.301L518.601 614.736C528.705 612.144 538.893 616.896 540.745 625.622L541.419 628.733C542.177 632.275 539.23 635.818 534.851 636.595Z" fill="black"/>
<path d="M537.63 629.942L457.555 644.889C457.387 644.889 457.219 644.975 457.05 644.975L457.303 646.012C457.892 648.777 460.502 650.505 463.281 649.986L534.935 636.594C539.314 635.817 542.345 632.274 541.587 628.732L541.503 628.473C540.324 629.164 539.061 629.682 537.63 629.942Z" fill="#FFFDFD"/>
<path d="M386.912 682.819L327.046 640.31C324.772 638.669 324.099 635.472 325.614 633.139L326.877 631.066C330.498 625.277 338.244 623.462 344.307 627.264L390.533 655.603C399.542 661.133 403.415 671.933 398.7 679.363L397.016 682.042C395.164 685.066 390.533 685.411 386.912 682.819Z" fill="#0C0C0C"/>
<path d="M393.479 680.141L326.54 632.621C326.372 632.534 326.288 632.362 326.119 632.275L325.614 633.139C324.183 635.472 324.772 638.669 327.046 640.31L386.912 682.819C390.532 685.411 395.163 685.066 397.016 682.042L397.184 681.782C395.921 681.523 394.658 680.918 393.479 680.141Z" fill="#CECECE"/>
<path d="M221.122 436.147H207.482C200.577 436.147 194.936 430.358 194.936 423.274V385.171H233.668V423.274C233.752 430.358 228.111 436.147 221.122 436.147Z" fill="#FF6161"/>
<path d="M199.314 390.355C190.305 390.355 183.063 397.872 183.063 407.03C183.063 416.189 190.389 423.706 199.314 423.706C208.239 423.706 215.565 416.189 215.565 407.03C215.565 397.872 208.239 390.355 199.314 390.355ZM199.314 420.077C192.325 420.077 186.6 414.202 186.6 407.03C186.6 399.859 192.325 393.984 199.314 393.984C206.303 393.984 212.028 399.859 212.028 407.03C211.944 414.288 206.303 420.077 199.314 420.077Z" fill="#F4A36C"/>
<path d="M221.122 436.147H207.482C200.577 436.147 194.936 430.358 194.936 423.274V385.171H233.668V423.274C233.752 430.358 228.111 436.147 221.122 436.147Z" fill="#F7BC8B"/>
<path d="M213.291 424.051C209.418 424.051 206.303 420.854 206.303 416.88V385.171H194.936V423.274C194.936 430.358 200.577 436.147 207.482 436.147H221.122C227.774 436.147 233.247 430.79 233.668 424.051H213.291Z" fill="#EFA573"/>
<path d="M373.861 436.147C374.703 433.901 375.124 431.482 375.124 428.976C375.124 417.485 366.114 408.24 354.916 408.24C343.717 408.24 334.708 417.485 334.708 428.976C334.708 431.482 335.129 433.901 335.971 436.147H373.861Z" fill="#FFC6A9"/>
<path opacity="0.77" d="M210.092 378.259C213.115 378.259 215.565 375.745 215.565 372.643C215.565 369.541 213.115 367.027 210.092 367.027C207.069 367.027 204.619 369.541 204.619 372.643C204.619 375.745 207.069 378.259 210.092 378.259Z" fill="#F2F2F2"/>
<g style="mix-blend-mode:lighten" opacity="0.77">
<path d="M220.196 361.41C224.706 361.41 228.363 357.659 228.363 353.03C228.363 348.401 224.706 344.649 220.196 344.649C215.685 344.649 212.028 348.401 212.028 353.03C212.028 357.659 215.685 361.41 220.196 361.41Z" fill="white"/>
</g>
<rect x="124.518" y="689.886" width="498.192" height="13.1407" rx="4" fill="#DDDDDD"/>
<path d="M566.262 75.7783L564.345 75.1324L563.652 70.6536L563.619 70.6424C563.464 71.2579 563.333 71.7236 563.227 72.0395L562.405 74.479L561.109 74.0426L562.932 68.6304L564.842 69.2738L565.545 73.6983L565.567 73.7058C565.716 73.1488 565.847 72.7049 565.958 72.3742L566.782 69.9272L568.085 70.3662L566.262 75.7783ZM574.547 75.5478C574.241 76.4584 573.784 77.0755 573.178 77.3988C572.572 77.7222 571.838 77.7388 570.976 77.4487C570.128 77.1627 569.556 76.7051 569.263 76.0759C568.971 75.4474 568.979 74.6779 569.286 73.7672C569.589 72.8664 570.045 72.2547 570.654 71.9322C571.266 71.608 572.002 71.5906 572.861 71.8799C573.722 72.17 574.295 72.6256 574.581 73.2466C574.866 73.8676 574.855 74.6346 574.547 75.5478ZM570.823 74.2933C570.471 75.3397 570.659 75.9856 571.387 76.2308C571.757 76.3555 572.074 76.3207 572.337 76.1263C572.603 75.9328 572.826 75.5671 573.008 75.029C573.19 74.4886 573.233 74.0592 573.136 73.7411C573.043 73.4212 572.817 73.2007 572.457 73.0793C571.724 72.8324 571.179 73.2371 570.823 74.2933ZM578.136 79.7778L576.673 79.2853L578.094 75.0688L576.772 74.6236L577.175 73.4279L581.277 74.8096L580.874 76.0053L579.556 75.5614L578.136 79.7778ZM584.578 81.9477L581.364 80.8654L583.188 75.4532L586.401 76.5356L586.005 77.7091L584.254 77.1193L583.968 77.9707L585.589 78.5169L585.194 79.6904L583.572 79.1442L583.228 80.1659L584.979 80.7557L584.578 81.9477ZM590.755 82.1985C590.642 82.5341 590.456 82.8041 590.198 83.0083C589.94 83.2101 589.627 83.3297 589.257 83.3673C588.888 83.4023 588.487 83.3471 588.055 83.2016C587.695 83.0803 587.401 82.9538 587.173 82.8221C586.947 82.688 586.722 82.5135 586.501 82.2987L586.94 80.9956C587.17 81.2327 587.422 81.4427 587.696 81.6255C587.971 81.8059 588.234 81.9385 588.485 82.0233C588.703 82.0965 588.874 82.1131 589 82.0731C589.127 82.0307 589.211 81.9503 589.251 81.8318C589.276 81.7578 589.276 81.6865 589.253 81.6181C589.232 81.548 589.186 81.4692 589.114 81.3817C589.044 81.295 588.844 81.0984 588.513 80.7918C588.214 80.5125 588.001 80.2677 587.874 80.0573C587.749 79.8477 587.677 79.6309 587.656 79.4069C587.638 79.1836 587.674 78.9388 587.763 78.6722C587.931 78.1737 588.244 77.8461 588.7 77.6894C589.157 77.5328 589.703 77.5612 590.337 77.7749C590.897 77.9636 591.425 78.2856 591.92 78.7409L591.092 79.7191C590.664 79.3167 590.266 79.0536 589.898 78.9297C589.708 78.8657 589.559 78.8525 589.45 78.89C589.341 78.9275 589.27 78.9957 589.237 79.0944C589.201 79.2005 589.224 79.3138 589.304 79.4343C589.387 79.5556 589.634 79.8092 590.045 80.1951C590.441 80.562 590.688 80.8967 590.787 81.1992C590.889 81.5001 590.878 81.8332 590.755 82.1985Z" fill="#717171"/>
<path d="M389.646 143.219L390.606 145.633L388.813 146.346L386.175 139.713L388.348 138.848C390.151 138.131 391.312 138.426 391.832 139.732C392.138 140.501 391.999 141.244 391.416 141.963L394.498 144.084L392.466 144.893L390.099 143.039L389.646 143.219ZM389.11 141.872L389.445 141.738C390.071 141.489 390.274 141.088 390.054 140.534C389.872 140.077 389.475 139.971 388.861 140.215L388.507 140.356L389.11 141.872ZM399.505 142.093L395.566 143.659L392.928 137.026L396.866 135.46L397.438 136.898L395.292 137.752L395.707 138.795L397.694 138.005L398.267 139.443L396.279 140.233L396.777 141.486L398.923 140.632L399.505 142.093ZM404.667 137.706C404.83 138.118 404.872 138.525 404.79 138.929C404.708 139.329 404.506 139.697 404.184 140.032C403.86 140.364 403.434 140.635 402.904 140.846C402.463 141.021 402.08 141.138 401.757 141.197C401.432 141.253 401.077 141.268 400.692 141.242L400.057 139.645C400.469 139.685 400.879 139.681 401.287 139.634C401.695 139.584 402.053 139.498 402.361 139.375C402.628 139.269 402.805 139.146 402.893 139.006C402.979 138.863 402.994 138.719 402.936 138.574C402.9 138.483 402.843 138.414 402.765 138.368C402.689 138.318 402.581 138.28 402.442 138.255C402.305 138.229 401.955 138.204 401.392 138.179C400.881 138.154 400.48 138.093 400.189 137.995C399.901 137.896 399.656 137.748 399.455 137.551C399.257 137.353 399.093 137.091 398.964 136.764C398.72 136.153 398.753 135.588 399.062 135.07C399.371 134.551 399.914 134.137 400.691 133.828C401.378 133.555 402.141 133.435 402.981 133.469L402.983 135.071C402.249 135.033 401.658 135.104 401.207 135.283C400.974 135.376 400.821 135.484 400.747 135.608C400.674 135.732 400.661 135.854 400.71 135.975C400.761 136.105 400.874 136.195 401.048 136.245C401.225 136.294 401.666 136.336 402.37 136.371C403.044 136.401 403.55 136.52 403.889 136.728C404.229 136.933 404.489 137.259 404.667 137.706ZM411.842 133.334C412.286 134.45 412.35 135.407 412.033 136.206C411.717 137.004 411.031 137.613 409.975 138.033C408.934 138.447 408.02 138.473 407.231 138.11C406.445 137.747 405.831 137.007 405.387 135.891C404.947 134.787 404.888 133.835 405.207 133.035C405.528 132.231 406.215 131.62 407.268 131.201C408.324 130.781 409.238 130.752 410.013 131.113C410.787 131.474 411.397 132.214 411.842 133.334ZM407.278 135.149C407.788 136.432 408.489 136.895 409.381 136.54C409.835 136.36 410.109 136.071 410.203 135.673C410.299 135.273 410.217 134.744 409.954 134.084C409.691 133.422 409.385 132.978 409.036 132.752C408.689 132.523 408.294 132.496 407.853 132.671C406.954 133.029 406.763 133.855 407.278 135.149ZM417.828 127.122L419.416 131.114C419.762 131.982 419.783 132.753 419.48 133.427C419.179 134.097 418.565 134.616 417.64 134.984C416.735 135.344 415.948 135.389 415.277 135.12C414.609 134.85 414.102 134.281 413.757 133.413L412.152 129.379L413.953 128.663L415.502 132.556C415.688 133.024 415.912 133.33 416.171 133.472C416.431 133.614 416.732 133.617 417.073 133.481C417.439 133.335 417.662 133.126 417.743 132.852C417.825 132.574 417.771 132.196 417.581 131.718L416.036 127.834L417.828 127.122ZM423.156 129.889L424.116 132.303L422.324 133.016L419.686 126.383L421.859 125.518C423.662 124.801 424.823 125.096 425.343 126.403C425.648 127.171 425.51 127.914 424.927 128.633L428.009 130.755L425.976 131.563L423.61 129.709L423.156 129.889ZM422.62 128.542L422.956 128.408C423.582 128.159 423.785 127.758 423.565 127.204C423.383 126.748 422.985 126.641 422.371 126.886L422.017 127.026L422.62 128.542ZM429.939 123.896C429.512 124.066 429.25 124.374 429.15 124.82C429.05 125.263 429.121 125.791 429.366 126.405C429.873 127.681 430.613 128.127 431.584 127.74C431.877 127.624 432.145 127.47 432.388 127.279C432.631 127.087 432.868 126.879 433.101 126.653L433.704 128.169C433.248 128.634 432.67 129.006 431.971 129.283C430.97 129.682 430.087 129.697 429.32 129.329C428.557 128.96 427.957 128.227 427.52 127.129C427.247 126.442 427.135 125.788 427.186 125.165C427.239 124.541 427.452 123.994 427.825 123.523C428.2 123.048 428.716 122.68 429.372 122.419C430.089 122.134 430.836 122.017 431.614 122.069L431.626 123.698C431.335 123.681 431.052 123.682 430.775 123.7C430.499 123.719 430.22 123.784 429.939 123.896ZM439.514 126.178L435.576 127.745L432.937 121.111L436.876 119.545L437.448 120.983L435.302 121.837L435.717 122.88L437.704 122.09L438.276 123.528L436.289 124.319L436.787 125.571L438.933 124.717L439.514 126.178ZM444.676 121.791C444.84 122.203 444.881 122.61 444.8 123.014C444.718 123.415 444.515 123.782 444.193 124.117C443.87 124.449 443.443 124.72 442.914 124.931C442.472 125.106 442.09 125.224 441.766 125.282C441.442 125.338 441.087 125.353 440.702 125.327L440.066 123.73C440.478 123.77 440.888 123.766 441.297 123.719C441.704 123.669 442.062 123.583 442.371 123.46C442.637 123.354 442.814 123.231 442.902 123.091C442.989 122.948 443.003 122.804 442.945 122.659C442.909 122.568 442.852 122.499 442.775 122.453C442.698 122.403 442.591 122.365 442.451 122.34C442.314 122.314 441.965 122.289 441.401 122.264C440.89 122.239 440.49 122.178 440.198 122.08C439.91 121.981 439.666 121.833 439.465 121.636C439.267 121.438 439.103 121.176 438.973 120.849C438.73 120.238 438.763 119.674 439.071 119.155C439.38 118.636 439.923 118.222 440.7 117.913C441.387 117.64 442.15 117.52 442.991 117.554L442.992 119.156C442.259 119.118 441.667 119.189 441.216 119.368C440.983 119.461 440.83 119.569 440.757 119.693C440.684 119.817 440.671 119.939 440.719 120.06C440.771 120.19 440.884 120.28 441.058 120.33C441.235 120.379 441.675 120.421 442.379 120.456C443.053 120.486 443.56 120.605 443.898 120.813C444.239 121.018 444.498 121.344 444.676 121.791ZM420.723 148.72L418.922 149.436L417.846 146.732L415.764 147.56L416.839 150.265L415.038 150.981L412.4 144.348L414.201 143.631L415.179 146.09L417.261 145.262L416.283 142.803L418.085 142.087L420.723 148.72ZM425.627 139.086L427.215 143.079C427.56 143.947 427.582 144.718 427.279 145.392C426.978 146.062 426.364 146.581 425.439 146.949C424.534 147.309 423.747 147.354 423.075 147.085C422.407 146.815 421.901 146.246 421.555 145.377L419.951 141.344L421.752 140.628L423.301 144.52C423.487 144.989 423.71 145.295 423.97 145.437C424.23 145.578 424.53 145.581 424.872 145.446C425.238 145.3 425.461 145.09 425.542 144.817C425.624 144.539 425.57 144.161 425.38 143.683L423.835 139.799L425.627 139.086ZM427.484 138.347L429.798 137.427C430.7 137.069 431.422 136.937 431.964 137.033C432.509 137.125 432.893 137.454 433.118 138.019C433.266 138.391 433.297 138.747 433.212 139.086C433.126 139.425 432.942 139.694 432.661 139.893L432.679 139.939C433.133 139.884 433.503 139.947 433.789 140.128C434.075 140.308 434.298 140.601 434.459 141.007C434.699 141.609 434.661 142.174 434.345 142.702C434.032 143.226 433.485 143.643 432.704 143.954L430.123 144.981L427.484 138.347ZM430.289 140.18L430.829 139.965C431.086 139.863 431.263 139.731 431.36 139.57C431.46 139.407 431.469 139.222 431.386 139.013C431.238 138.641 430.882 138.567 430.32 138.791L429.816 138.991L430.289 140.18ZM430.811 141.491L431.365 142.884L431.995 142.633C432.555 142.411 432.741 142.063 432.553 141.591C432.465 141.371 432.322 141.231 432.124 141.174C431.929 141.115 431.689 141.142 431.405 141.255L430.811 141.491Z" fill="#717171"/>
<path d="M430.382 99.8387L383.069 119.657C382.654 119.83 382.288 120.106 382.004 120.459C381.721 120.812 381.528 121.231 381.444 121.678C381.65 121.507 381.879 121.368 382.125 121.265L429.438 101.445C430.366 101.056 431.359 100.857 432.361 100.858C433.363 100.859 434.355 101.06 435.28 101.451C436.204 101.841 437.044 102.413 437.75 103.134C438.456 103.854 439.015 104.709 439.395 105.65L472.549 187.705C472.939 188.671 473.133 189.707 473.118 190.753C473.102 191.798 472.878 192.83 472.458 193.785C473.281 192.708 473.81 191.43 473.991 190.08C474.172 188.73 474 187.357 473.492 186.098L440.339 104.044C439.958 103.103 439.399 102.248 438.693 101.527C437.987 100.807 437.148 100.235 436.223 99.8446C435.299 99.4542 434.307 99.2527 433.304 99.2517C432.302 99.2505 431.309 99.4502 430.382 99.8387Z" fill="white"/>
<path d="M472.505 198.936L424.594 217.227C424.175 217.388 423.72 217.441 423.271 217.381C422.822 217.321 422.394 217.151 422.024 216.885C422.291 216.867 422.553 216.809 422.802 216.714L470.714 198.424C471.653 198.065 472.51 197.525 473.234 196.833C473.959 196.14 474.537 195.31 474.937 194.39C475.337 193.47 475.549 192.477 475.563 191.468C475.577 190.46 475.391 189.455 475.017 188.512L442.387 106.254C442.004 105.285 441.429 104.401 440.696 103.655C439.964 102.909 439.089 102.317 438.126 101.915C439.465 102.127 440.73 102.688 441.792 103.54C442.855 104.391 443.678 105.504 444.179 106.766L476.808 189.024C477.182 189.967 477.368 190.972 477.354 191.98C477.34 192.989 477.128 193.982 476.728 194.902C476.328 195.822 475.75 196.652 475.025 197.344C474.301 198.036 473.444 198.577 472.505 198.936Z" fill="white"/>
<path d="M380.31 120.246L379.056 120.757C378.727 120.892 378.428 121.092 378.175 121.345C377.923 121.598 377.721 121.899 377.583 122.23C377.444 122.562 377.372 122.917 377.369 123.277C377.365 123.637 377.432 123.993 377.565 124.327L413.754 215.923C413.886 216.257 414.081 216.561 414.328 216.817C414.576 217.074 414.871 217.278 415.196 217.419C415.522 217.559 415.872 217.633 416.226 217.636C416.58 217.639 416.931 217.572 417.26 217.437L418.514 216.926L380.31 120.246Z" fill="#BCD9EA"/>
<path d="M468.08 196.87L420.514 216.096C419.712 216.419 418.818 216.407 418.028 216.061C417.237 215.716 416.615 215.065 416.298 214.253L380.541 122.483C380.226 121.67 380.241 120.762 380.583 119.958C380.926 119.155 381.569 118.521 382.369 118.197L429.926 98.9673C431.946 98.1559 434.197 98.1893 436.188 99.06C438.178 99.9307 439.745 101.568 440.546 103.613L472.675 186.074C473.468 188.121 473.429 190.405 472.568 192.428C471.707 194.451 470.094 196.048 468.08 196.87ZM382.776 119.239C382.248 119.453 381.824 119.872 381.598 120.402C381.372 120.933 381.362 121.532 381.571 122.069L417.325 213.838C417.535 214.375 417.946 214.804 418.468 215.032C418.99 215.26 419.58 215.268 420.109 215.054L467.666 195.821C469.411 195.113 470.81 193.732 471.557 191.981C472.303 190.23 472.336 188.252 471.649 186.481L439.519 104.025C438.827 102.256 437.472 100.839 435.75 100.086C434.027 99.3334 432.079 99.3057 430.333 100.009L382.776 119.239Z" fill="#786CFF"/>
<path opacity="0.2" d="M445.078 144.538L442.148 137.317L437.433 125.694L437.329 125.438C437.137 124.963 436.764 124.588 436.294 124.393C435.824 124.198 435.295 124.201 434.823 124.401L434.569 124.509L398.695 139.719L398.436 139.837C397.965 140.037 397.589 140.418 397.391 140.895C397.193 141.372 397.19 141.908 397.383 142.383L401.257 151.933L405.031 161.217L405.145 161.477C405.338 161.952 405.71 162.328 406.18 162.522C406.65 162.717 407.179 162.714 407.651 162.514L444.038 147.078C444.506 146.875 444.878 146.495 445.073 146.019C445.268 145.543 445.27 145.011 445.078 144.538Z" fill="#463E3B"/>
<path d="M445.64 105.079L377.879 131.937C376.753 132.383 376.186 133.677 376.611 134.826L390.394 172.031C390.82 173.181 392.078 173.751 393.204 173.304L460.965 146.447C462.091 146.001 462.659 144.707 462.233 143.557L448.45 106.352C448.024 105.203 446.766 104.633 445.64 105.079Z" fill="white"/>
<g opacity="0.2">
<path opacity="0.2" d="M431.319 141.486L427.487 150.618C427.375 150.886 427.211 151.128 427.005 151.331C426.799 151.534 426.555 151.693 426.287 151.8C426.019 151.907 425.732 151.959 425.442 151.953C425.153 151.948 424.866 151.884 424.599 151.767L406.201 143.705C406.132 143.675 406.065 143.641 406 143.601C408.554 142.93 411.039 141.627 413.325 140.282C414.54 139.565 415.758 138.823 417.083 138.347C420.547 137.105 424.475 137.803 427.816 139.418C429.035 140.012 430.207 140.704 431.319 141.486Z" fill="#DED6D3"/>
</g>
<path d="M631.044 92.3826L540.444 63.9999C537.656 63.1264 534.69 64.672 533.819 67.4521L493.99 194.617C493.12 197.397 494.674 200.359 497.463 201.233L588.062 229.615C590.85 230.489 593.817 228.943 594.688 226.163L634.516 98.9981C635.387 96.218 633.832 93.2561 631.044 92.3826Z" fill="#1DCDFF"/>
<path d="M607.29 180.756L593.885 223.912C592.474 228.455 589.21 231.477 586.594 230.664L497.15 202.874C494.535 202.061 493.558 197.721 494.969 193.179L502.722 168.218C506.616 176.969 512.04 183.741 518.185 188.81C525.604 194.936 534.066 198.68 542.752 201.542C553.135 204.967 564.094 207.176 575.818 204.127C586.57 201.329 598.118 193.636 607.29 180.756Z" fill="#1AB5E1"/>
<path d="M619.996 101.057L546.021 77.6355C544.309 77.0934 542.475 78.0637 541.925 79.8028L506.55 191.554C505.999 193.293 506.941 195.143 508.653 195.685L582.628 219.107C584.34 219.649 586.174 218.679 586.724 216.94L622.099 105.188C622.65 103.449 621.708 101.6 619.996 101.057Z" fill="white"/>
<path d="M623.075 83.176L612.511 116.64L517.078 86.5063L527.642 53.0423C528.453 50.474 530.472 48.8355 532.159 49.3681L621.498 77.5777C623.177 78.0951 623.886 80.6077 623.075 83.176Z" fill="#FF6644"/>
<path d="M614.89 83.0795L546.376 61L543 71.4784L611.514 93.5579L614.89 83.0795Z" fill="white"/>
<path d="M537.035 112.516L562.567 120.912L562.925 119.822L537.394 111.426L537.035 112.516Z" fill="#AFE6FF"/>
<path d="M534 122.09L559.532 130.486L559.89 129.396L534.358 121L534 122.09Z" fill="#AFE6FF"/>
<path d="M537.99 108.029L593.455 126.607L593.819 125.519L538.354 106.941L537.99 108.029Z" fill="#AFE6FF"/>
<path d="M535 117.088L590.465 135.666L590.829 134.578L535.364 116L535 117.088Z" fill="#AFE6FF"/>
<path d="M531 128.088L586.465 146.666L586.829 145.578L531.364 127L531 128.088Z" fill="#AFE6FF"/>
<path d="M572 91.3824L606.063 101.156L607.894 94.7735L573.831 85L572 91.3824Z" fill="#EEA248"/>
<path d="M535.045 80.5381L567.007 90.5192L569.266 83.2831L537.304 73.3021L535.045 80.5381Z" fill="#EEA248"/>
<path d="M536.832 65.6654C538.949 65.6654 540.664 63.9494 540.664 61.8327C540.664 59.716 538.949 58 536.832 58C534.716 58 533 59.716 533 61.8327C533 63.9494 534.716 65.6654 536.832 65.6654Z" fill="#EEA248"/>
<path d="M568.671 198.683C571.48 198.683 573.758 196.37 573.758 193.517C573.758 190.663 571.48 188.35 568.671 188.35C565.862 188.35 563.584 190.663 563.584 193.517C563.584 196.37 565.862 198.683 568.671 198.683Z" fill="#EA4583"/>
<path d="M577.859 169.734H574.304C572.616 169.734 571.249 171.123 571.249 172.837V176.448C571.249 178.162 572.616 179.551 574.304 179.551H577.859C579.546 179.551 580.914 178.162 580.914 176.448V172.837C580.914 171.123 579.546 169.734 577.859 169.734Z" fill="#59E342"/>
<path d="M583.518 151.509C583.621 151.402 583.749 151.324 583.891 151.284C584.032 151.244 584.182 151.243 584.323 151.281C584.465 151.319 584.593 151.395 584.695 151.501C584.797 151.606 584.87 151.738 584.904 151.882L586.034 156.235L587.164 160.587C587.201 160.728 587.2 160.877 587.162 161.019C587.124 161.161 587.049 161.29 586.946 161.393C586.843 161.497 586.715 161.571 586.575 161.609C586.435 161.646 586.288 161.646 586.149 161.607L577.563 159.296C577.423 159.259 577.296 159.186 577.193 159.083C577.091 158.98 577.018 158.852 576.981 158.71C576.943 158.569 576.944 158.42 576.982 158.278C577.02 158.137 577.094 158.007 577.196 157.903L580.358 154.707L583.518 151.509Z" fill="#EEA248"/>
<path d="M574.848 109.273L560.646 104.055C558.36 103.215 555.836 104.417 555.009 106.739L520.814 202.767C519.987 205.089 521.17 207.653 523.457 208.493L537.658 213.711C539.944 214.551 542.468 213.349 543.295 211.027L577.49 114.999C578.317 112.676 577.134 110.113 574.848 109.273Z" fill="#E8F0F9"/>
<path d="M575.799 109.081L572.475 107.877C573.32 108.184 574.011 108.818 574.395 109.642C574.78 110.466 574.827 111.411 574.525 112.269L540.057 210.447C539.755 211.305 539.13 212.007 538.319 212.397C537.509 212.788 536.578 212.835 535.733 212.529L539.056 213.733C539.902 214.039 540.832 213.992 541.643 213.601C542.454 213.211 543.078 212.509 543.38 211.651L577.849 113.479C577.999 113.054 578.065 112.602 578.043 112.151C578.021 111.699 577.912 111.257 577.721 110.848C577.531 110.44 577.263 110.073 576.933 109.77C576.603 109.467 576.218 109.233 575.799 109.081Z" fill="#BCD9EA"/>
<path opacity="0.2" d="M575.799 109.081L559.649 103.231C558.804 102.925 557.873 102.973 557.063 103.363C556.252 103.754 555.627 104.455 555.325 105.314L554.009 109.062C554.311 108.204 554.936 107.502 555.747 107.112C556.557 106.721 557.488 106.674 558.333 106.98L574.483 112.829C575.328 113.136 576.018 113.771 576.403 114.594C576.787 115.418 576.834 116.363 576.533 117.221L577.849 113.473C578.15 112.614 578.103 111.669 577.719 110.846C577.334 110.022 576.644 109.387 575.799 109.081Z" fill="#463E3B"/>
<path d="M572.166 116.648L571.771 117.774L575.463 119.112L575.858 117.986L572.166 116.648Z" fill="#786CFF"/>
<path d="M571.111 119.65L570.716 120.775L574.408 122.113L574.803 120.987L571.111 119.65Z" fill="#786CFF"/>
<path d="M570.057 122.65L569.662 123.776L573.354 125.114L573.75 123.988L570.057 122.65Z" fill="#786CFF"/>
<path d="M565.99 124.878L565.59 126.001L572.959 128.709L573.359 127.585L565.99 124.878Z" fill="#786CFF"/>
<path d="M568.564 128.088L568.168 129.214L571.86 130.551L572.256 129.426L568.564 128.088Z" fill="#786CFF"/>
<path d="M567.511 131.089L567.116 132.215L570.808 133.553L571.204 132.427L567.511 131.089Z" fill="#786CFF"/>
<path d="M566.458 134.091L566.063 135.217L569.755 136.554L570.151 135.428L566.458 134.091Z" fill="#786CFF"/>
<path d="M562.353 136.357L561.953 137.481L569.323 140.188L569.723 139.065L562.353 136.357Z" fill="#786CFF"/>
<path d="M564.963 139.528L564.568 140.654L568.26 141.991L568.655 140.866L564.963 139.528Z" fill="#786CFF"/>
<path d="M563.91 142.529L563.515 143.655L567.207 144.993L567.603 143.867L563.91 142.529Z" fill="#786CFF"/>
<path d="M562.856 145.531L562.46 146.656L566.152 147.994L566.548 146.868L562.856 145.531Z" fill="#786CFF"/>
<path d="M558.111 147.192L557.715 148.318L565.1 150.993L565.495 149.868L558.111 147.192Z" fill="#786CFF"/>
<path d="M560.626 150.701L560.23 151.827L563.922 153.165L564.318 152.039L560.626 150.701Z" fill="#786CFF"/>
<path d="M559.571 153.702L559.176 154.828L562.868 156.166L563.263 155.04L559.571 153.702Z" fill="#786CFF"/>
<path d="M558.518 156.702L558.123 157.828L561.815 159.165L562.21 158.04L558.518 156.702Z" fill="#786CFF"/>
<path d="M554.34 159.05L553.94 160.173L561.31 162.881L561.71 161.757L554.34 159.05Z" fill="#786CFF"/>
<path d="M556.654 162.008L556.258 163.134L559.951 164.471L560.346 163.345L556.654 162.008Z" fill="#786CFF"/>
<path d="M555.601 165.007L555.206 166.133L558.898 167.471L559.294 166.345L555.601 165.007Z" fill="#786CFF"/>
<path d="M554.547 168.009L554.151 169.134L557.844 170.472L558.239 169.346L554.547 168.009Z" fill="#786CFF"/>
<path d="M550.334 170.392L549.934 171.516L557.304 174.224L557.704 173.1L550.334 170.392Z" fill="#786CFF"/>
<path d="M553.053 173.448L552.658 174.573L556.35 175.911L556.745 174.785L553.053 173.448Z" fill="#786CFF"/>
<path d="M552.001 176.449L551.605 177.575L555.298 178.913L555.693 177.787L552.001 176.449Z" fill="#786CFF"/>
<path d="M550.947 179.448L550.552 180.574L554.244 181.912L554.639 180.786L550.947 179.448Z" fill="#786CFF"/>
<path d="M546.696 181.872L546.296 182.995L553.665 185.703L554.065 184.579L546.696 181.872Z" fill="#786CFF"/>
<path d="M549.084 184.754L548.689 185.88L552.381 187.218L552.776 186.092L549.084 184.754Z" fill="#786CFF"/>
<path d="M548.029 187.756L547.634 188.882L551.326 190.219L551.721 189.093L548.029 187.756Z" fill="#786CFF"/>
<path d="M546.977 190.757L546.582 191.883L550.274 193.22L550.669 192.095L546.977 190.757Z" fill="#786CFF"/>
<path d="M542.231 192.419L541.836 193.545L549.22 196.22L549.615 195.094L542.231 192.419Z" fill="#786CFF"/>
<path d="M545.115 196.062L544.719 197.187L548.412 198.525L548.807 197.399L545.115 196.062Z" fill="#786CFF"/>
<path d="M544.06 199.062L543.665 200.188L547.357 201.526L547.752 200.4L544.06 199.062Z" fill="#786CFF"/>
<path d="M543.005 202.062L542.61 203.187L546.302 204.525L546.697 203.399L543.005 202.062Z" fill="#786CFF"/>
<path d="M538.26 203.725L537.865 204.851L545.249 207.527L545.645 206.401L538.26 203.725Z" fill="#786CFF"/>
<path d="M562.43 104.668L525.947 208.566L526.684 208.833L563.167 104.935L562.43 104.668Z" fill="white"/>
<path d="M521.697 207.021L520.59 206.619L556.543 104.222C556.648 103.924 556.865 103.68 557.147 103.544C557.429 103.408 557.752 103.391 558.046 103.498L521.697 207.021Z" fill="white"/>
<path d="M558.051 103.507L521.7 207.027L522.808 207.429L559.159 103.908L558.051 103.507Z" fill="white"/>
<path d="M559.158 103.906L522.807 207.427L523.915 207.829L560.266 104.308L559.158 103.906Z" fill="white"/>
<path d="M534.542 206.608C534.869 205.676 534.391 204.651 533.473 204.319C532.556 203.987 531.548 204.473 531.22 205.404C530.893 206.336 531.372 207.361 532.289 207.693C533.206 208.025 534.215 207.539 534.542 206.608Z" fill="white"/>
<path d="M532.088 208.25C531.65 208.092 531.268 207.806 530.991 207.427C530.713 207.049 530.552 206.595 530.527 206.124C530.503 205.652 530.617 205.184 530.855 204.778C531.092 204.372 531.443 204.047 531.863 203.844C532.282 203.64 532.751 203.568 533.211 203.635C533.672 203.702 534.101 203.907 534.447 204.222C534.793 204.538 535.039 204.95 535.154 205.408C535.269 205.865 535.248 206.347 535.094 206.792C534.886 207.39 534.452 207.88 533.888 208.153C533.325 208.427 532.677 208.461 532.088 208.25ZM533.273 204.876C533.054 204.797 532.817 204.785 532.591 204.843C532.365 204.901 532.161 205.025 532.005 205.201C531.849 205.376 531.748 205.595 531.714 205.828C531.68 206.062 531.715 206.301 531.815 206.515C531.915 206.728 532.075 206.907 532.275 207.029C532.475 207.15 532.705 207.208 532.938 207.196C533.17 207.184 533.394 207.102 533.581 206.961C533.768 206.82 533.909 206.626 533.987 206.403C534.091 206.104 534.075 205.776 533.941 205.49C533.807 205.203 533.567 204.983 533.273 204.876Z" fill="#786CFF"/>
<path d="M567.625 111.199C567.952 110.267 567.474 109.242 566.557 108.91C565.64 108.578 564.631 109.064 564.304 109.995C563.977 110.927 564.455 111.951 565.372 112.284C566.289 112.616 567.298 112.13 567.625 111.199Z" fill="white"/>
<path d="M565.168 112.844C564.731 112.686 564.349 112.4 564.071 112.021C563.793 111.643 563.632 111.189 563.607 110.717C563.583 110.246 563.697 109.778 563.935 109.372C564.172 108.966 564.523 108.641 564.943 108.438C565.362 108.234 565.832 108.162 566.291 108.229C566.751 108.296 567.182 108.501 567.527 108.816C567.873 109.132 568.119 109.544 568.234 110.002C568.349 110.459 568.328 110.941 568.174 111.386C567.966 111.984 567.532 112.474 566.968 112.747C566.405 113.021 565.757 113.055 565.168 112.844ZM566.353 109.468C566.134 109.389 565.897 109.377 565.671 109.435C565.445 109.493 565.241 109.617 565.085 109.792C564.929 109.968 564.828 110.186 564.794 110.42C564.76 110.654 564.795 110.893 564.895 111.107C564.995 111.32 565.155 111.499 565.355 111.62C565.555 111.742 565.785 111.8 566.018 111.788C566.25 111.776 566.474 111.694 566.661 111.553C566.848 111.412 566.989 111.217 567.067 110.995C567.172 110.696 567.155 110.368 567.021 110.081C566.888 109.795 566.647 109.575 566.353 109.468Z" fill="#786CFF"/>
<path d="M539.512 214.743L522.29 208.496C521.441 208.186 520.747 207.548 520.36 206.719C519.973 205.891 519.926 204.94 520.228 204.077L555.082 104.818C555.386 103.955 556.015 103.25 556.831 102.857C557.646 102.464 558.582 102.416 559.432 102.723L576.654 108.97C577.504 109.28 578.198 109.919 578.585 110.747C578.971 111.576 579.019 112.526 578.717 113.39L543.863 212.648C543.558 213.511 542.929 214.216 542.114 214.609C541.298 215.002 540.363 215.05 539.512 214.743ZM559.037 103.858C558.48 103.657 557.867 103.688 557.333 103.946C556.799 104.203 556.388 104.665 556.189 105.23L521.335 204.489C521.139 205.054 521.171 205.675 521.425 206.216C521.679 206.757 522.133 207.174 522.688 207.375L539.91 213.623C540.467 213.824 541.079 213.792 541.613 213.535C542.147 213.278 542.559 212.816 542.758 212.25L577.612 112.992C577.81 112.426 577.779 111.804 577.525 111.262C577.272 110.719 576.817 110.301 576.261 110.099L559.037 103.858Z" fill="#786CFF"/>
<path opacity="0.1" d="M555.026 140.545C555.109 138.965 555.404 137.404 555.903 135.906C556.279 134.677 556.877 133.529 557.665 132.522C558.471 131.494 559.591 130.767 560.849 130.456L560.931 130.845C559.759 131.139 558.716 131.818 557.966 132.778C557.209 133.748 556.636 134.852 556.274 136.035C555.787 137.499 555.498 139.025 555.417 140.568L555.026 140.545Z" fill="black"/>
<path opacity="0.1" d="M542.609 144.9C542.335 144.801 542.069 144.679 541.814 144.538L542.003 144.188C544.615 145.646 548.223 144.623 549.726 142.014C550.162 141.256 550.472 140.329 550.7 139.098C551.083 137.016 551.052 135.154 550.605 133.554C550.072 131.649 548.912 130.081 547.421 129.252L547.61 128.902C549.193 129.781 550.423 131.437 550.983 133.446C551.446 135.112 551.481 137.03 551.085 139.171C550.849 140.45 550.525 141.418 550.06 142.218C548.606 144.735 545.295 145.862 542.609 144.9Z" fill="black"/>
<path opacity="0.1" d="M543.333 140.368L543.37 139.973C544.953 140.129 546.558 138.877 546.948 137.184C547.305 135.627 546.659 133.804 545.338 132.647L545.595 132.345C547.03 133.594 547.721 135.579 547.331 137.276C546.899 139.154 545.107 140.543 543.333 140.368Z" fill="black"/>
<path opacity="0.1" d="M528.455 187.535C528.174 187.434 527.909 187.294 527.667 187.119L527.895 186.794C528.637 187.333 529.586 187.473 530.634 187.2C532.92 186.604 535.362 184.178 536.856 181.019C537.531 179.593 538.105 177.912 538.665 175.729C539.604 172.06 540.032 168.857 539.938 166.229C539.827 163.105 538.952 160.719 537.537 159.694L537.765 159.369C539.28 160.467 540.213 162.962 540.329 166.214C540.424 168.888 539.991 172.123 539.044 175.829C538.478 178.037 537.896 179.74 537.211 181.192C535.667 184.451 533.129 186.967 530.732 187.591C529.985 187.806 529.191 187.786 528.455 187.535Z" fill="black"/>
<path opacity="0.1" d="M530.4 179.678L530.37 179.28C532.053 179.143 534.195 176.477 535.046 173.449C535.838 170.642 535.585 167.645 534.419 165.992L534.737 165.758C535.989 167.533 536.258 170.594 535.423 173.557C534.515 176.781 532.262 179.522 530.4 179.678Z" fill="black"/>
<path opacity="0.1" d="M557.382 168.418C555.799 167.539 554.569 165.883 554.009 163.874C553.546 162.208 553.511 160.29 553.906 158.149C554.142 156.87 554.466 155.902 554.932 155.102C556.537 152.316 560.391 151.229 563.182 152.78L562.993 153.13C560.383 151.672 556.773 152.695 555.27 155.304C554.833 156.062 554.524 156.989 554.296 158.22C553.913 160.302 553.943 162.164 554.39 163.763C554.923 165.669 556.084 167.237 557.574 168.066L557.382 168.418Z" fill="black"/>
<path opacity="0.1" d="M559.398 164.965C557.962 163.715 557.272 161.731 557.661 160.034C558.094 158.159 559.886 156.764 561.659 156.939L561.622 157.335C560.039 157.178 558.434 158.43 558.044 160.123C557.688 161.681 558.334 163.503 559.654 164.661L559.398 164.965Z" fill="black"/>
<path opacity="0.1" d="M543.237 207.686C541 206.436 539.262 204.102 538.468 201.261C537.812 198.91 537.763 196.178 538.325 193.139C538.659 191.325 539.118 189.955 539.76 188.824C542.028 184.89 547.469 183.358 551.407 185.546L551.219 185.896C547.461 183.814 542.263 185.272 540.098 189.02C539.471 190.109 539.026 191.438 538.7 193.206C538.151 196.182 538.196 198.854 538.835 201.144C539.6 203.883 541.269 206.142 543.413 207.327L543.237 207.686Z" fill="black"/>
<path opacity="0.1" d="M546.12 202.775C544.109 201.011 543.125 198.221 543.672 195.83C544.287 193.189 546.795 191.248 549.282 191.484L549.245 191.879C546.946 191.652 544.619 193.466 544.056 195.919C543.539 198.169 544.466 200.801 546.376 202.471L546.12 202.775Z" fill="black"/>
<path d="M559.424 106.115L524.522 205.511L525.63 205.913L560.533 106.517L559.424 106.115Z" fill="#786CFF"/>
<path opacity="0.1" d="M543.69 175.529C543.237 174.263 542.665 172.689 542.712 171.094C542.743 169.844 543.122 168.647 543.51 167.489C543.715 166.835 543.943 166.16 544.094 165.488C544.491 163.594 544.384 161.628 543.784 159.791C543.184 157.954 542.113 156.313 540.681 155.036L540.935 154.734C542.42 156.058 543.531 157.762 544.154 159.667C544.776 161.573 544.887 163.613 544.476 165.577C544.32 166.269 544.098 166.954 543.881 167.616C543.512 168.747 543.133 169.907 543.104 171.106C543.067 172.624 543.617 174.161 544.057 175.396L543.69 175.529Z" fill="black"/>
<path opacity="0.1" d="M558.464 126.341C558.011 125.075 557.439 123.5 557.486 121.905C557.517 120.655 557.896 119.458 558.284 118.3C558.489 117.646 558.717 116.971 558.868 116.299C559.265 114.406 559.158 112.439 558.558 110.602C557.958 108.765 556.886 107.124 555.455 105.847L555.709 105.545C557.194 106.87 558.305 108.573 558.928 110.479C559.55 112.385 559.661 114.424 559.25 116.388C559.094 117.08 558.872 117.765 558.655 118.427C558.286 119.558 557.907 120.718 557.878 121.917C557.841 123.436 558.391 124.972 558.831 126.207L558.464 126.341Z" fill="black"/>
<path opacity="0.1" d="M569.463 134.131C569.01 132.865 568.438 131.291 568.485 129.696C568.516 128.446 568.895 127.249 569.283 126.091C569.488 125.437 569.716 124.762 569.867 124.089C570.264 122.196 570.157 120.23 569.557 118.393C568.957 116.556 567.886 114.914 566.454 113.637L566.708 113.335C568.193 114.66 569.304 116.363 569.927 118.269C570.549 120.175 570.66 122.215 570.249 124.179C570.093 124.87 569.871 125.556 569.654 126.218C569.285 127.349 568.906 128.509 568.877 129.708C568.84 131.226 569.39 132.763 569.83 133.998L569.463 134.131Z" fill="black"/>
<path opacity="0.1" d="M528.547 210.101L528.217 209.893C528.961 208.704 528.882 207.186 528.804 205.728C528.783 205.347 528.763 204.966 528.756 204.591C528.762 203.309 528.853 202.029 529.029 200.759C529.318 198.318 529.593 196.011 528.715 193.862C528.082 192.31 526.87 191.028 525.792 189.949L526.066 189.666C527.176 190.771 528.416 192.09 529.078 193.71C529.997 195.957 529.693 198.423 529.421 200.807C529.244 202.057 529.15 203.318 529.14 204.581C529.14 204.949 529.166 205.324 529.185 205.701C529.275 207.227 529.359 208.804 528.547 210.101Z" fill="black"/>
<rect x="420.934" y="173.386" width="27" height="8" transform="rotate(-21.5533 420.934 173.386)" fill="#CECECE"/>
</svg>
