<svg width="135" height="111" viewBox="0 0 135 111" fill="none" xmlns="http://www.w3.org/2000/svg">
<path d="M65.5 103C91.7334 103 113 81.7334 113 55.5C113 29.2666 91.7334 8 65.5 8C39.2666 8 18 29.2666 18 55.5C18 81.7334 39.2666 103 65.5 103Z" fill="white"/>
<path d="M91.1338 25.0073C83.2371 25.4238 67.5417 26.9399 57.8525 32.4523C57.1839 32.8327 56.8049 33.509 56.8049 34.2162V82.9485C56.8049 84.4954 58.6249 85.473 60.1595 84.7552C70.1283 80.0918 84.5455 78.8195 91.6741 78.4713C94.108 78.3521 96 76.5387 96 74.3651V29.1189C96.0014 26.747 93.7881 24.868 91.1338 25.0073ZM51.1475 32.4523C41.4597 26.9399 25.7644 25.4251 17.8677 25.0073C15.2134 24.868 13 26.747 13 29.1189V74.3664C13 76.5414 14.892 78.3548 17.3259 78.4726C24.4574 78.8208 38.8818 80.0945 48.8506 84.7605C50.3809 85.4771 52.1951 84.5007 52.1951 82.9579V34.192C52.1951 33.4836 51.8176 32.834 51.1475 32.4523Z" fill="#FF6B00"/>
<path d="M37.16 68L31 57.12H28.36V68H22.76V40.08H33.24C35.4 40.08 37.24 40.4667 38.76 41.24C40.28 41.9867 41.4133 43.0133 42.16 44.32C42.9333 45.6 43.32 47.04 43.32 48.64C43.32 50.48 42.7867 52.1467 41.72 53.64C40.6533 55.1067 39.0667 56.12 36.96 56.68L43.64 68H37.16ZM28.36 52.92H33.04C34.56 52.92 35.6933 52.56 36.44 51.84C37.1867 51.0933 37.56 50.0667 37.56 48.76C37.56 47.48 37.1867 46.4933 36.44 45.8C35.6933 45.08 34.56 44.72 33.04 44.72H28.36V52.92Z" fill="white"/>
<path d="M88.92 41.08V69H83.32V57.12H71.36V69H65.76V41.08H71.36V52.56H83.32V41.08H88.92Z" fill="white"/>
</svg>
